#!OML:ASF X:\für Bonn\!DataBase\2005_08_11_Bastian_Final\c3d\Bastian.ASF
:FULLY-SPECIFIED
:DEGREES
361
root -0.710926 2.19941 25.5276 -978.828 0.145489 -886.866
lowerback 69.3885 2.71242 16.2034
upperback 22.6236 -6.17329 6.34094
thorax 5.89437 -11.6814 1.71805
lowerneck -26.7914 -6.71014 -5.91995
upperneck 8.00005 -7.5892 6.72432
head 7.17445 -2.99807 2.16443
rclavicle 9.54166e-015 -3.18055e-014
rhumerus -60.1036 40.8875 -110.643
rradius 41.2567
rwrist -13.9406
rhand -32.8756 -11.341
rfingers 7.12502
rthumb -6.09415 -41.2334
lclavicle 9.54166e-015 -3.18055e-014
lhumerus -233.708 -187.41 256.931
lradius 48.6597
lwrist 66.2609
lhand -35.4511 0.510897
lfingers 7.12502
lthumb -8.58015 30.3166
rfemur -73.9767 -23.7009 30.3593
rtibia 136.837
rfoot -2.5068 5.88147
rtoes -6.00858
lfemur -61.1881 13.59 -19.3517
ltibia 111.885
lfoot 9.67196 4.42875
ltoes 32.7333
362
root -0.697633 2.18172 25.5195 -978.968 0.100696 -887.125
lowerback 69.2943 2.84456 16.0365
upperback 22.6952 -6.15937 6.2821
thorax 5.94894 -11.6837 1.69454
lowerneck -26.9069 -6.67681 -5.85746
upperneck 8.22699 -7.57031 6.63998
head 7.25993 -2.99533 2.12545
rclavicle -1.47101e-014 -1.66979e-014
rhumerus -60.2186 40.655 -110.564
rradius 41.4762
rwrist -13.416
rhand -32.882 -11.2762
rfingers 7.12502
rthumb -6.10026 -41.1684
lclavicle -1.47101e-014 -1.66979e-014
lhumerus -233.913 -187.464 256.699
lradius 48.8919
lwrist 66.2349
lhand -35.3188 0.664224
lfingers 7.12502
lthumb -8.45241 30.4751
rfemur -73.994 -22.104 30.0592
rtibia 135.543
rfoot -1.70444 5.12045
rtoes -5.47578
lfemur -61.1266 13.5413 -19.3681
ltibia 111.95
lfoot 9.64371 4.55987
ltoes 32.5106
363
root -0.684328 2.1641 25.513 -979.059 0.0564334 -887.377
lowerback 69.1895 2.96363 15.841
upperback 22.7306 -6.14074 6.20205
thorax 5.95333 -11.6679 1.6681
lowerneck -26.8961 -6.64373 -5.83302
upperneck 8.39707 -7.55272 6.60712
head 7.31184 -2.99347 2.11153
rclavicle 2.14687e-014 -9.54166e-015
rhumerus -60.3748 40.3516 -110.472
rradius 41.7438
rwrist -12.854
rhand -32.8285 -11.2438
rfingers 7.12502
rthumb -6.0486 -41.1375
lclavicle 2.14687e-014 -9.54166e-015
lhumerus -234.198 -187.483 256.489
lradius 49.1831
lwrist 66.1794
lhand -35.26 0.8791
lfingers 7.12502
lthumb -8.3957 30.6922
rfemur -73.9668 -20.5759 29.7684
rtibia 134.168
rfoot -0.914208 4.56733
rtoes -5.37501
lfemur -61.1232 13.4957 -19.3981
ltibia 112.005
lfoot 9.63732 4.68258
ltoes 32.3267
364
root -0.671742 2.14614 25.5079 -979.142 0.0344072 -887.641
lowerback 69.0713 3.08036 15.6829
upperback 22.7823 -6.11405 6.12317
thorax 5.98052 -11.6479 1.62014
lowerneck -26.9421 -6.61801 -5.80849
upperneck 8.57314 -7.53654 6.55628
head 7.37344 -2.99174 2.09062
rclavicle 1.66979e-014 8.74653e-014
rhumerus -60.491 40.0686 -110.377
rradius 42.0009
rwrist -12.3694
rhand -32.838 -11.1911
rfingers 7.12502
rthumb -6.05784 -41.0845
lclavicle 1.66979e-014 8.74653e-014
lhumerus -234.447 -187.509 256.274
lradius 49.4799
lwrist 66.1622
lhand -35.1793 1.0098
lfingers 7.12502
lthumb -8.3178 30.826
rfemur -73.8731 -19.0714 29.4879
rtibia 132.707
rfoot -0.0881052 4.21346
rtoes -5.41102
lfemur -61.1317 13.4874 -19.4136
ltibia 112.053
lfoot 9.66691 4.77683
ltoes 32.1261
365
root -0.659881 2.12714 25.5009 -979.201 -0.0331226 -887.892
lowerback 68.9436 3.18719 15.4915
upperback 22.8079 -6.085 6.03877
thorax 5.97153 -11.6156 1.58681
lowerneck -26.9285 -6.59189 -5.80596
upperneck 8.73596 -7.52351 6.5489
head 7.42503 -2.98984 2.08812
rclavicle 2.70347e-014 6.36111e-015
rhumerus -60.6506 39.738 -110.276
rradius 42.2757
rwrist -11.827
rhand -32.7636 -11.196
rfingers 7.12502
rthumb -5.98599 -41.0915
lclavicle 2.70347e-014 6.36111e-015
lhumerus -234.715 -187.553 256.065
lradius 49.7427
lwrist 66.0559
lhand -35.0724 1.18922
lfingers 7.12502
lthumb -8.21465 31.0095
rfemur -73.731 -17.7457 29.1628
rtibia 131.198
rfoot 0.683918 4.04188
rtoes -5.7349
lfemur -61.1649 13.4492 -19.5
ltibia 112.1
lfoot 9.73784 4.84605
ltoes 31.8507
366
root -0.647805 2.10801 25.4933 -979.26 -0.0833088 -888.163
lowerback 68.7844 3.29551 15.3457
upperback 22.8728 -6.04702 5.9302
thorax 6.0098 -11.5733 1.49393
lowerneck -26.9259 -6.57769 -5.75005
upperneck 8.87992 -7.54238 6.55109
head 7.47248 -2.99868 2.07596
rclavicle 1.74931e-014 -3.49861e-014
rhumerus -60.6972 39.3048 -110.119
rradius 42.5673
rwrist -11.2678
rhand -32.6436 -11.2297
rfingers 7.12502
rthumb -5.87018 -41.1284
lclavicle 1.74931e-014 -3.49861e-014
lhumerus -234.92 -187.502 255.832
lradius 49.9934
lwrist 66.0123
lhand -34.9981 1.32331
lfingers 7.12502
lthumb -8.14298 31.1464
rfemur -73.5206 -16.4941 28.8686
rtibia 129.637
rfoot 1.46968 3.97252
rtoes -6.21561
lfemur -61.1975 13.4535 -19.5639
ltibia 112.151
lfoot 9.85096 4.88644
ltoes 31.8443
